Coordinates
nRows=135
nColumns=2
inDegrees=yes
endheader
time	ankle_angle_r	
4.36565	 19.104004	
4.43722	 19.104004	
4.50878	 19.180298	
4.58035	 19.058228	
4.65192	 19.058228	
4.72349	 19.149780	
4.79506	 19.119263	
4.86662	 19.104004	
4.93819	 19.027710	
5.00976	 19.104004	
5.08133	 19.210815	
5.1529	 19.027710	
5.22446	 19.104004	
5.29603	 19.073486	
5.3676	 19.149780	
5.43917	 19.027710	
5.51074	 19.027710	
5.5823	 19.165039	
5.65387	 19.119263	
5.72544	 19.104004	
5.79701	 19.073486	
5.86858	 19.195557	
5.94014	 19.165039	
6.01171	 19.042969	
6.08328	 19.134521	
6.15485	 19.119263	
6.22642	 19.134521	
6.29798	 19.012451	
6.36955	 19.088745	
6.44112	 19.165039	
6.51269	 19.027710	
6.58426	 19.073486	
6.65582	 19.042969	
6.72739	 19.134521	
6.79896	 19.073486	
6.87053	 18.981934	
6.9421	 19.088745	
7.01366	 19.042969	
7.08523	 19.088745	
7.1568	 18.997192	
7.22837	 19.104004	
7.29994	 19.165039	
7.3715	 18.997192	
7.44307	 19.058228	
7.51464	 19.073486	
7.58621	 19.134521	
7.65778	 19.058228	
7.72934	 19.027710	
7.80091	 19.180298	
7.87248	 19.088745	
7.94405	 19.119263	
8.01562	 19.088745	
8.08718	 19.165039	
8.15875	 19.149780	
8.23032	 19.058228	
8.30189	 19.119263	
8.37346	 19.104004	
8.44502	 19.180298	
8.51659	 19.027710	
8.58816	 19.042969	
8.65973	 19.134521	
8.7313	 19.073486	
8.80286	 19.073486	
8.87443	 18.997192	
8.946	 19.119263	
9.01757	 19.088745	
9.08914	 19.012451	
9.1607	 19.149780	
9.23227	 19.104004	
9.30384	 19.134521	
9.37541	 19.027710	
9.44698	 19.119263	
9.51854	 19.195557	
9.59011	 19.042969	
9.66168	 19.104004	
9.73325	 19.088745	
9.80482	 19.165039	
9.87638	 19.073486	
9.94795	 19.027710	
10.0195	 19.149780	
10.0911	 19.104004	
10.1627	 19.104004	
10.2342	 18.997192	
10.3058	 19.104004	
10.3774	 19.165039	
10.4489	 18.981934	
10.5205	 19.073486	
10.5921	 19.073486	
10.6636	 19.104004	
10.7352	 18.981934	
10.8068	 18.997192	
10.8783	 19.119263	
10.9499	 19.042969	
11.0215	 19.058228	
11.093	 19.027710	
11.1646	 19.134521	
11.2362	 19.149780	
11.3077	 19.027710	
11.3793	 19.104004	
11.4509	 19.104004	
11.5224	 19.165039	
11.594	 19.042969	
11.6656	 19.073486	
11.7372	 19.165039	
11.8087	 19.088745	
11.8803	 19.134521	
11.9519	 19.073486	
12.0234	 19.195557	
12.095	 19.104004	
12.1666	 19.027710	
12.2381	 19.134521	
12.3097	 19.088745	
12.3813	 19.104004	
12.4528	 19.012451	
12.5244	 19.088745	
12.596	 19.119263	
12.6675	 19.012451	
12.7391	 19.058228	
12.8107	 19.058228	
12.8822	 19.104004	
12.9538	 19.027710	
13.0254	 18.966675	
13.0969	 19.088745	
13.1685	 19.058228	
13.2401	 19.058228	
13.3116	 18.997192	
13.3832	 19.149780	
13.4548	 19.149780	
13.5264	 19.058228	
13.5979	 19.119263	
13.6695	 19.149780	
13.7411	 19.149780	
13.8126	 19.042969	
13.8842	 19.088745	
13.9558	 19.165039	
